<?xml version="1.0" ?>
<!-- Uploaded to: SVG Repo, www.svgrepo.com, Generator: SVG Repo Mixer Tools -->
<svg width="800px" height="800px" viewBox="-50.21 0 512 512" xmlns="http://www.w3.org/2000/svg">
<defs>
<style>.cls-1{fill:none;stroke:#000000;stroke-linecap:round;stroke-linejoin:round;stroke-width:20px;}</style>
</defs>
<g data-name="Layer 2" id="Layer_2">
<g data-name="E434, Book, contacts, phone" id="E434_Book_contacts_phone">
<line class="cls-1" x1="60.2" x2="60.2" y1="361.43" y2="150.57"/>
<path class="cls-1" d="M60.2,100.37V70.24A60.24,60.24,0,0,1,120.45,10h220.9a60.24,60.24,0,0,1,60.24,60.24V441.76A60.24,60.24,0,0,1,341.35,502H120.45A60.24,60.24,0,0,1,60.2,441.76V411.63"/>
<rect class="cls-1" height="50.2" rx="25.1" width="100.41" x="10" y="100.37"/>
<rect class="cls-1" height="50.2" rx="25.1" width="100.41" x="10" y="361.43"/>
<path class="cls-1" d="M225.88,232.4a85.35,85.35,0,0,0-85.35,85.35H311.22A85.35,85.35,0,0,0,225.88,232.4Z"/>
<circle class="cls-1" cx="225.88" cy="198.27" r="34.14"/>
<path class="cls-1" d="M373.56,105.39h28a0,0,0,0,1,0,0V406.61a0,0,0,0,1,0,0h-28a22.17,22.17,0,0,1-22.17-22.17V127.56a22.17,22.17,0,0,1,22.17-22.17Z"/>
<line class="cls-1" x1="351.39" x2="401.59" y1="155.59" y2="155.59"/>
<line class="cls-1" x1="351.39" x2="401.59" y1="205.8" y2="205.8"/>
<line class="cls-1" x1="351.39" x2="401.59" y1="256" y2="256"/>
<line class="cls-1" x1="351.39" x2="401.59" y1="306.2" y2="306.2"/>
<line class="cls-1" x1="351.39" x2="401.59" y1="356.41" y2="356.41"/>
</g>
</g>
</svg>